<svg xmlns="http://www.w3.org/2000/svg" width="16" height="16" viewBox="0 0 16 16" _ngcontent-fim-c94="" class="full-image-gallery-modal__close-icon" aria-hidden="true">
    <g fill="none" fill-rule="evenodd" _ngcontent-fim-c94="">
        <path d="M0 0H16V16H0z" _ngcontent-fim-c94=""></path>
        <path class="fill-close-icon" fill="currentColor" d="M9.426 8l5.279 5.278c.393.394.393 1.033 0 1.427-.394.393-1.033.393-1.427 0L8 9.426l-5.278 5.279c-.394.393-1.033.393-1.427 0-.393-.394-.393-1.033 0-1.427L6.574 8 1.295 2.722c-.393-.394-.393-1.033 0-1.427.394-.393 1.033-.393 1.427 0L8 6.574l5.278-5.279c.394-.393 1.033-.393 1.427 0 .393.394.393 1.033 0 1.427L9.426 8z" _ngcontent-fim-c94=""></path>
    </g>
</svg>